<svg fill="none" height="30" viewBox="0 0 30 30" width="30" xmlns="http://www.w3.org/2000/svg"><path d="m25.2764 11.2219c-1.5825-4.14868-5.6793-7.11346-10.4998-7.11346-4.79967 0-8.886 2.93795-10.47898 7.05976-.08311-.0905-.16969-.1777-.26319-.2548.90384-5.02408 5.36764-8.84409 10.74917-8.84409 5.3572 0 9.8072 3.78312 10.7422 8.77029-.097.1207-.1801.2482-.2494.3823zm2.2371-1.35829c-.0207 0-.0381.00335-.0588.00335-1.3471-5.6512-6.5001-9.86696-12.6746-9.86696-6.3442 0-11.61488 4.45053-12.78191 10.3365-1.160103.2079-2.00507372 1.1906-1.99814773 2.3343v4.6785c0 1.3114 1.08737773 2.3746 2.42755773 2.3746.75493 0 1.42329-.3455 1.86656-.8754 1.07352 2.7401 3.24136 4.9536 6.01864 6.1275.0347-.0671.0762-.1308.1212-.1912.0451-.0537.0935-.1006.1351-.1006s.0831.0134.1177.0369c-.6406-.4629-2.95043-2.8307-3.45256-6.1409-.21817-1.4556.9073-2.8876 2.21978-3.1224 2.10548-.379 4.20058-.8116 6.30608-1.1839 1.3402-.2348 2.2544-.9491 2.812-2.133.1316-.2784.322-.8385.4086-1.6434.0208-.1208.1281-.2113.2563-.2113.0831 0 .1593.0402.2078.104l.0588-.0336c.8311 1.1672 2.4761 3.753 2.7116 6.4763.2701 3.1157.1212 5.2487-2.341 7.432l-.0104.0101c-.0347.0369-.0554.0838-.0554.1342 0 .0637.0346.124.09.1576.0208.0067.0416.0201.0623.0268.0174.0034.0312.0067.0485.0101.0173 0 .0312-.0034.045-.0101.0347-.0168.0693-.0369.1039-.057 2.5142-1.3449 4.405-3.5685 5.2811-6.218.3658.522.9273.8853 1.5653 1.0129-1.0389 4.5914-5.2707 7.4689-10.5102 7.9016-.3325-.7848-1.122-1.2946-1.9947-1.2912-1.1843 0-2.1471.9088-2.1471 2.029s.9628 2.0291 2.1471 2.0291c.9212.0033 1.7419-.5668 2.0328-1.412 6.0637-.4762 10.9257-3.9676 11.9404-9.3907.9246-.3689 1.5272-1.2409 1.5272-2.2102v-4.7255c.0069-1.3248-1.1082-2.39799-2.4865-2.39799z" fill="#fff"/></svg>