<svg fill="none" height="70" viewBox="0 0 70 70" width="70" xmlns="http://www.w3.org/2000/svg" xmlns:xlink="http://www.w3.org/1999/xlink"><filter id="a" color-interpolation-filters="sRGB" filterUnits="userSpaceOnUse" height="70" width="70" x="0" y="0"><feFlood flood-opacity="0" result="BackgroundImageFix"/><feColorMatrix in="SourceAlpha" result="hardAlpha" type="matrix" values="0 0 0 0 0 0 0 0 0 0 0 0 0 0 0 0 0 0 127 0"/><feOffset dy="3"/><feGaussianBlur stdDeviation="4"/><feComposite in2="hardAlpha" operator="out"/><feColorMatrix type="matrix" values="0 0 0 0 0 0 0 0 0 0.46 0 0 0 0 1 0 0 0 0.49 0"/><feBlend in2="BackgroundImageFix" mode="normal" result="effect1_dropShadow_2963_467"/><feBlend in="SourceGraphic" in2="effect1_dropShadow_2963_467" mode="normal" result="shape"/></filter><mask id="b" height="54" maskUnits="userSpaceOnUse" width="54" x="8" y="5"><circle cx="35" cy="32" fill="#d9d9d9" r="27"/></mask><g filter="url(#a)"><g mask="url(#b)"><path d="m63.3516-5.79688h92.475v55.35h-92.475z" transform="matrix(0 1 -1 0 57.55472 -69.14848)"/></g></g><path d="m47.5254 20.7981h-3.2947c-.3476.0049-.6792.147-.9225.3953l-1.7133 1.7132-1.7132-1.7132c-.2433-.2483-.5749-.3904-.9225-.3953h-16.4734c-.2621-.0093-.5232.0356-.7672.1317s-.4657.2413-.6511.4268c-.1854.1854-.3307.407-.4268.651s-.1409.5052-.1317.7673v18.4502c0 .5242.2083 1.0271.579 1.3978s.8735.579 1.3978.579h16.4734c.3476-.005.6792-.1471.9225-.3954l1.7132-1.7132 1.7133 1.7132c.2433.2483.5749.3904.9225.3954h3.2947c.5242 0 1.027-.2083 1.3978-.579.3707-.3707.579-.8736.579-1.3978v-18.4502c.0092-.2621-.0357-.5233-.1318-.7673-.096-.244-.2413-.4656-.4268-.651-.1854-.1855-.407-.3307-.651-.4268s-.5052-.141-.7672-.1317zm-19.1092 7.2482c.2607 0 .5155.0773.7322.2221.2167.1449.3856.3507.4854.5915.0997.2408.1258.5058.075.7614-.0509.2557-.1764.4905-.3607.6748s-.4191.3098-.6748.3607c-.2556.0508-.5206.0247-.7614-.075-.2408-.0998-.4466-.2687-.5914-.4854-.1449-.2167-.2222-.4715-.2222-.7322 0-.3495.1389-.6847.386-.9319.2472-.2471.5824-.386.9319-.386zm5.2715 7.9073c-.2606 0-.5154-.0773-.7322-.2221-.2167-.1448-.3856-.3507-.4853-.5915-.0998-.2408-.1259-.5058-.075-.7614.0508-.2556.1763-.4905.3606-.6748s.4192-.3098.6748-.3606c.2556-.0509.5206-.0248.7614.075.2408.0997.4467.2686.5915.4853.1448.2168.2221.4716.2221.7322 0 .3495-.1389.6847-.386.9319-.2472.2471-.5824.386-.9319.386zm1.5815-6.3258-6.5894 6.5894c-.1173.1278-.2598.2298-.4187.2996-.1588.0699-.3303.1059-.5038.1059s-.3451-.036-.5039-.1059c-.1588-.0698-.3013-.1718-.4186-.2996-.1278-.1173-.2299-.2599-.2997-.4187s-.1059-.3304-.1059-.5039c0-.1734.0361-.345.1059-.5038s.1719-.3014.2997-.4187l6.5893-6.5893c.2538-.1904.5677-.2828.8842-.2603.3164.0225.6141.1584.8384.3827s.3602.522.3827.8384c.0225.3165-.0699.6304-.2602.8842zm7.6436 8.3026c0 .3495-.1388.6847-.386.9319-.2471.2471-.5823.386-.9319.386-.3495 0-.6847-.1389-.9318-.386-.2472-.2472-.386-.5824-.386-.9319v-1.3179c0-.3495.1388-.6847.386-.9319.2471-.2471.5823-.386.9318-.386.3496 0 .6848.1389.9319.386.2472.2472.386.5824.386.9319zm0-5.2715c0 .3495-.1388.6847-.386.9319-.2471.2471-.5823.386-.9319.386-.3495 0-.6847-.1389-.9318-.386-.2472-.2472-.386-.5824-.386-.9319v-1.3179c0-.3495.1388-.6847.386-.9318.2471-.2472.5823-.386.9318-.386.3496 0 .6848.1388.9319.386.2472.2471.386.5823.386.9318zm0-5.2715c0 .3495-.1388.6847-.386.9319-.2471.2471-.5823.386-.9319.386-.3495 0-.6847-.1389-.9318-.386-.2472-.2472-.386-.5824-.386-.9319v-1.3179c0-.3495.1388-.6847.386-.9318.2471-.2472.5823-.386.9318-.386.3496 0 .6848.1388.9319.386.2472.2471.386.5823.386.9318z" fill="#fff"/></svg>