<svg fill="none" height="70" viewBox="0 0 70 70" width="70" xmlns="http://www.w3.org/2000/svg" xmlns:xlink="http://www.w3.org/1999/xlink"><filter id="a" color-interpolation-filters="sRGB" filterUnits="userSpaceOnUse" height="70" width="70" x="0" y="0"><feFlood flood-opacity="0" result="BackgroundImageFix"/><feColorMatrix in="SourceAlpha" result="hardAlpha" type="matrix" values="0 0 0 0 0 0 0 0 0 0 0 0 0 0 0 0 0 0 127 0"/><feOffset dy="3"/><feGaussianBlur stdDeviation="4"/><feComposite in2="hardAlpha" operator="out"/><feColorMatrix type="matrix" values="0 0 0 0 0 0 0 0 0 0.46 0 0 0 0 1 0 0 0 0.49 0"/><feBlend in2="BackgroundImageFix" mode="normal" result="effect1_dropShadow_2963_460"/><feBlend in="SourceGraphic" in2="effect1_dropShadow_2963_460" mode="normal" result="shape"/></filter><mask id="b" height="54" maskUnits="userSpaceOnUse" width="54" x="8" y="5"><circle cx="35" cy="32" fill="#d9d9d9" r="27"/></mask><g filter="url(#a)"><g mask="url(#b)"><path d="m63.3516-5.79688h92.475v55.35h-92.475z" transform="matrix(0 1 -1 0 57.55472 -69.14848)"/></g></g><path d="m45.4 21.0703h-20.8c-1.4365 0-2.587 1.2231-2.587 2.7332l-.013 16.3991c0 1.5101 1.1635 2.7332 2.6 2.7332h20.8c1.4365 0 2.6-1.2231 2.6-2.7332v-16.3991c0-1.5101-1.1635-2.7332-2.6-2.7332zm0 5.4664-10.4 6.833-10.4-6.833v-2.7332l10.4 6.833 10.4-6.833z" fill="#fff"/></svg>