<svg fill="none" height="70" viewBox="0 0 70 70" width="70" xmlns="http://www.w3.org/2000/svg" xmlns:xlink="http://www.w3.org/1999/xlink"><filter id="a" color-interpolation-filters="sRGB" filterUnits="userSpaceOnUse" height="70" width="70" x="0" y="0"><feFlood flood-opacity="0" result="BackgroundImageFix"/><feColorMatrix in="SourceAlpha" result="hardAlpha" type="matrix" values="0 0 0 0 0 0 0 0 0 0 0 0 0 0 0 0 0 0 127 0"/><feOffset dy="3"/><feGaussianBlur stdDeviation="4"/><feComposite in2="hardAlpha" operator="out"/><feColorMatrix type="matrix" values="0 0 0 0 0 0 0 0 0 0.46 0 0 0 0 1 0 0 0 0.49 0"/><feBlend in2="BackgroundImageFix" mode="normal" result="effect1_dropShadow_2963_446"/><feBlend in="SourceGraphic" in2="effect1_dropShadow_2963_446" mode="normal" result="shape"/></filter><mask id="b" height="54" maskUnits="userSpaceOnUse" width="54" x="8" y="5"><circle cx="35" cy="32" fill="#d9d9d9" r="27"/></mask><g filter="url(#a)"><g mask="url(#b)"><path d="m63.3516-5.79688h92.475v55.35h-92.475z" transform="matrix(0 1 -1 0 57.55472 -69.14848)"/></g></g><path d="m31.286 42.9221.4661-6.9495 12.7832-11.3688c.5659-.5093-.1165-.7557-.8655-.3121l-15.7793 9.8409-6.8244-2.1358c-1.4648-.4107-1.4814-1.4129.3329-2.1357l26.5818-10.1202c1.2151-.5422 2.3802.2957 1.9142 2.1357l-4.5274 21.0455c-.3163 1.495-1.2318 1.8564-2.4968 1.1664l-6.8909-5.0272-3.3124 3.1707c-.3828.3779-.6991.6901-1.3815.6901z" fill="#fff"/></svg>