<svg fill="none" height="70" viewBox="0 0 67 70" width="67" xmlns="http://www.w3.org/2000/svg" xmlns:xlink="http://www.w3.org/1999/xlink"><filter id="a" color-interpolation-filters="sRGB" filterUnits="userSpaceOnUse" height="70" width="70" x="0" y="0"><feFlood flood-opacity="0" result="BackgroundImageFix"/><feColorMatrix in="SourceAlpha" result="hardAlpha" type="matrix" values="0 0 0 0 0 0 0 0 0 0 0 0 0 0 0 0 0 0 127 0"/><feOffset dy="3"/><feGaussianBlur stdDeviation="4"/><feComposite in2="hardAlpha" operator="out"/><feColorMatrix type="matrix" values="0 0 0 0 0 0 0 0 0 0.46 0 0 0 0 1 0 0 0 0.49 0"/><feBlend in2="BackgroundImageFix" mode="normal" result="effect1_dropShadow_2945_10144"/><feBlend in="SourceGraphic" in2="effect1_dropShadow_2945_10144" mode="normal" result="shape"/></filter><mask id="b" height="54" maskUnits="userSpaceOnUse" width="54" x="8" y="5"><circle cx="35" cy="32" fill="#fff" r="27"/></mask><g filter="url(#a)"><g mask="url(#b)"><path d="m8 5h54v54h-54z" fill="#fff" opacity=".6"/></g></g><g fill="#09f"><path d="m21.6484 21.4823c.1101-.1077.2225-.2131.3303-.3232l2.3888-2.3865.1054-.1007 4.937 4.9393 3.1055-3.0563v8.9676h-8.9488l3.0446-3.0657c-.0422-.0469-.0656-.0773-.0937-.1054l-4.7754-4.7684c-.0281-.0281-.0632-.0492-.0937-.0749z"/><path d="m24.4807 45.3514c-.096-.0984-.1873-.1968-.2833-.2928l-2.5177-2.5177 4.9393-4.9393-3.0587-3.1172h8.9559v8.9652l-3.0797-3.0446c-.0281.0258-.0586.0492-.0867.0773l-4.766 4.7754c-.0281.0281-.0515.0632-.0773.0937z"/><path d="m45.5144 18.6484c.2178.2202.4333.4403.6511.6581l2.0586 2.061.1007.1031-4.9323 4.9346 3.0634 3.1126h-8.9793v-8.977l3.0867 3.0446c.0286-.0228.0559-.047.082-.0726l4.7684-4.766c.0281-.0281.0492-.0632.0749-.0937z"/><path d="m48.3459 42.5144-.6394.63-2.0797 2.0797-.1054.1007-4.9299-4.9323-3.1149 3.0634v-8.9793h8.9769l-3.0446 3.0868c.0211.0234.0445.0538.0726.0819l4.7684 4.766c.0288.0276.0593.0534.0913.0773z"/></g></svg>