<svg fill="none" height="59" viewBox="0 0 66 59" width="66" xmlns="http://www.w3.org/2000/svg"><path clip-rule="evenodd" d="m37.7202 2.72578c-2.0983-3.634377-7.3441-3.634372-9.4424.00001l-27.540272 47.70121c-2.098308 3.6344.524572 8.1773 4.721192 8.1773h55.08058c4.1966 0 6.8195-4.5429 4.7212-8.1773zm-2.9883 36.94952.4697-15.2892v-4.1547c-.3132-3.3237-1.7224-3.6561-3.4448-3.6561-2.5053 0-2.8707 2.659-2.8185 3.6561.1044 5.2072.3132 16.3861.3132 19.4439.2847 3.1732 2.5112 3.049 3.3838 3.0004.0871-.0049.1607-.009.2176-.009 1.5032-.2659 1.879-2.105 1.879-2.9914zm-2.6638 12.4174c-2.0193 0-3.6563-1.6369-3.6563-3.6562s1.637-3.6563 3.6563-3.6563 3.6562 1.637 3.6562 3.6563-1.6369 3.6562-3.6562 3.6562z" fill="#4098d8" fill-rule="evenodd"/></svg>