<svg fill="none" height="60" viewBox="0 0 60 60" width="60" xmlns="http://www.w3.org/2000/svg" xmlns:xlink="http://www.w3.org/1999/xlink"><clipPath id="a"><path d="m.183594.5h59v59h-59z"/></clipPath><g clip-path="url(#a)"><path d="m41.7441 18.1589h.0431c.4094 0 .7894.1273 1.1009.3467l-.0059-.0039c.2272.1978.38.476.4172.7894v.0058c.0392.239.0608.5133.0608.7934 0 .1273-.004.2527-.0138.378v-.0176c-.4407 4.6405-2.3525 15.894-3.3241 21.0888-.4113 2.1997-1.2203 2.9363-2.0039 3.0068-1.7022.1586-2.995-1.1244-4.6444-2.2057-2.5817-1.6944-4.041-2.7482-6.5464-4.3995-2.8971-1.9059-1.0186-2.9578.6308-4.6699.4329-.4505 7.9371-7.277 8.0841-7.896.0078-.0372.0117-.0784.0117-.1214 0-.1528-.0568-.2919-.1489-.3977-.1018-.0666-.2291-.1038-.3623-.1038-.0882 0-.1724.0176-.2508.047l.0039-.002c-.2585.0588-4.3825 2.7842-12.3719 8.1762-.8717.6876-1.9726 1.1224-3.1714 1.1733h-.0117c-1.6983-.2056-3.2399-.5837-4.7032-1.1224l.145.047c-1.8374-.5994-3.2967-.9147-3.1714-1.9294.0666-.5276.794-1.0676 2.1822-1.62 8.5509-3.7257 14.2531-6.1814 17.1064-7.3671 3.1479-1.6709 6.7972-3.046 10.6345-3.9373l.3076-.0607zm-12.1291-17.6589c-16.2622.039177-29.431406 13.2319-29.431406 29.5 0 16.2916 13.206406 29.5 29.500006 29.5s29.5-13.2064 29.5-29.5c0-16.2681-13.1692-29.460823-29.4275-29.5h-.0039c-.0458 0-.0915 0-.1372 0z" fill="#fff"/></g></svg>