<svg fill="none" height="45" viewBox="0 0 45 45" width="45" xmlns="http://www.w3.org/2000/svg" xmlns:xlink="http://www.w3.org/1999/xlink"><clipPath id="a"><path d="m0 0h45v45h-45z"/></clipPath><g clip-path="url(#a)"><path d="m34.7727 8.18734h2.0454v2.04546c0 .5425.2155 1.0627.5991 1.4463s.9039.5991 1.4464.5991c.5424 0 1.0627-.2155 1.4463-.5991s.5991-.9038.5991-1.4463v-2.04546h2.0455c.5424 0 1.0627-.2155 1.4463-.5991s.5991-.90386.5991-1.44635-.2155-1.06276-.5991-1.44635c-.3836-.3836-.9039-.5991-1.4463-.5991h-2.0455v-2.04545c0-.54249-.2155-1.062756-.5991-1.446352-.3836-.383597-.9039-.59909874-1.4463-.59909874-.5425 0-1.0628.21550174-1.4464.59909874-.3836.383596-.5991.903862-.5991 1.446352v2.04545h-2.0454c-.5425 0-1.0628.2155-1.4464.5991-.3836.38359-.5991.90386-.5991 1.44635s.2155 1.06275.5991 1.44635.9039.5991 1.4464.5991zm-22.5 4.09086v20.4545c0 .5425.2155 1.0628.5991 1.4464s.9039.5991 1.4464.5991c.5424 0 1.0627-.2155 1.4463-.5991s.5991-.9039.5991-1.4464v-20.4545c0-.5424-.2155-1.0627-.5991-1.4463s-.9039-.5991-1.4463-.5991c-.5425 0-1.0628.2155-1.4464.5991s-.5991.9039-.5991 1.4463zm29.8636 4.0909c-.2633.0537-.5134.1587-.7361.3091-.2226.1503-.4135.3431-.5617.5672-.1481.2242-.2507.4753-.3018.7391-.051.2638-.0496.535.0041.7983.7987 3.8786.3253 7.9113-1.3497 11.4995-1.6751 3.5883-4.4625 6.5408-7.9486 8.4192s-7.485 2.5827-11.403 2.0082c-3.9181-.5744-7.5465-2.397-10.34663-5.1971-2.80011-2.8001-4.62268-6.4285-5.19714-10.3466-.57447-3.9181.12978-7.917 2.00822-11.403 1.87843-3.4861 4.83095-6.27357 8.41915-7.94862 3.5882-1.67504 7.621-2.14838 11.4996-1.34976.5425.1085 1.1058-.00295 1.5662-.30983.4603-.30687.7798-.78404.8883-1.32653s-.0029-1.10586-.3098-1.56617c-.3069-.460317-.7841-.779872-1.3265-.88837-1.4969-.2788943-3.0187-.4022772-4.5409-.36818074-4.4501 0-8.8002 1.31960074-12.50034 3.79192074-3.7001 2.47233-6.58398 5.98634-8.28694 10.09764-1.70297105 4.1114-2.148545 8.6353-1.28038 12.9999.86817 4.3646 3.01108 8.3737 6.15775 11.5204 3.14668 3.1466 7.15581 5.2895 11.52031 6.1577 4.3646.8682 8.8886.4226 12.9999-1.2804 4.1113-1.7029 7.6254-4.5868 10.0977-8.2869s3.7919-8.0502 3.7919-12.5003c.0043-1.5115-.1464-3.0193-.45-4.5-.049-.2669-.1506-.5215-.2989-.7487-.1484-.2273-.3405-.4228-.5651-.5751-.2247-.1523-.4774-.2584-.7434-.312-.266-.0537-.5401-.0539-.8062-.0006zm-21.6818 0v2.0455c.009 1.5137.5773 2.9707 1.5955 4.0909-1.0182 1.1202-1.5865 2.5771-1.5955 4.0909v2.0454c0 1.6275.6465 3.1883 1.7973 4.3391s2.7116 1.7973 4.3391 1.7973h2.0454c1.6275 0 3.1883-.6465 4.3391-1.7973s1.7973-2.7116 1.7973-4.3391v-2.0454c-.0091-1.5138-.5773-2.9707-1.5955-4.0909 1.0182-1.1202 1.5864-2.5772 1.5955-4.0909v-2.0455c0-1.6274-.6465-3.1882-1.7973-4.339s-2.7116-1.7973-4.3391-1.7973h-2.0454c-1.6275 0-3.1883.6465-4.3391 1.7973s-1.7973 2.7116-1.7973 4.339zm10.2273 12.2727c0 .5425-.2155 1.0628-.5991 1.4464s-.9039.5991-1.4464.5991h-2.0454c-.5425 0-1.0628-.2155-1.4464-.5991s-.5991-.9039-.5991-1.4464v-2.0454c0-.5425.2155-1.0628.5991-1.4464s.9039-.5991 1.4464-.5991h2.0454c.5425 0 1.0628.2155 1.4464.5991s.5991.9039.5991 1.4464zm0-12.2727v2.0455c0 .5425-.2155 1.0627-.5991 1.4463s-.9039.5991-1.4464.5991h-2.0454c-.5425 0-1.0628-.2155-1.4464-.5991s-.5991-.9038-.5991-1.4463v-2.0455c0-.5424.2155-1.0627.5991-1.4463s.9039-.5991 1.4464-.5991h2.0454c.5425 0 1.0628.2155 1.4464.5991s.5991.9039.5991 1.4463z" fill="#fff"/></g></svg>