<svg fill="none" height="43" viewBox="0 0 39 43" width="39" xmlns="http://www.w3.org/2000/svg" xmlns:xlink="http://www.w3.org/1999/xlink"><clipPath id="a"><path d="m0 .125h39v42.75h-39z"/></clipPath><g clip-path="url(#a)" fill="#fff"><path d="m6.48726 39.7657c-.08291 1.8825-1.35912 3.1055-3.06469 3.1055-.43094.0051-.85776-.0833-1.25022-.2588-.39247-.1755-.74099-.4339-1.0209-.7569-.514986-.5786-.79173-1.3261-.775798-2.0957-.001855-.4069.080123-.8099.24096-1.1847s.397188-.7134.694728-.9955c.28414-.2827.62424-.5048.99916-.6524s.77664-.2177 1.18018-.2057c.55283-.0246 1.10025.1165 1.57015.4046s.84023.7098 1.06222 1.2094h-1.07782c-.1916-.2438-.43907-.4394-.72215-.5708-.28307-.1314-.59369-.1948-.90643-.1851-.27609-.0007-.54949.0535-.80386.1593-.25438.1059-.48451.2611-.67666.4565-.41278.4228-.64753.9841-.65687 1.5707-.00934.5867.20741 1.155.60653 1.5903.19851.2059.43664.3708.70049.4851.26385.1142.54815.1755.83629.1803.88832 0 1.61378-.4757 2.07274-1.4243h-2.71825v-.8318z"/><path d="m7.41307 42.7599h-.92088l2.34515-5.9161h.8439l2.34816 5.9161h-.9446l-.6603-1.722h-2.32742zm1.8477-4.8012-.86167 2.2474h1.7056z"/><path d="m12.3672 42.7599v-5.9161h1.291l1.75 4.5765 1.7381-4.5765h1.2762v5.9161h-.8202l.0592-5.1339-1.9572 5.1339h-.6218l-1.9395-5.1339.0592 5.1339z"/><path d="m22.2172 42.8716c-.4174.0069-.8315-.0732-1.2153-.2352-.3837-.162-.7284-.4021-1.0114-.7046-.5674-.593-.8739-1.383-.8528-2.1978-.0036-.3987.0751-.794.2314-1.1618s.3869-.7004.6777-.9776c.2871-.2824.6285-.5053 1.0043-.6557s.7784-.2252 1.1839-.2199c.696.0024 1.3705.2376 1.9133.6671.5427.4294.9215 1.0278 1.0744 1.697h-1.5871c-.1243-.2607-.321-.4813-.5673-.6363-.2463-.1549-.5322-.2379-.8244-.2393-.2084-.0038-.4156.0333-.6092.1093-.1937.0761-.37.1895-.5187.3335-.1486.1441-.2666.316-.347.5056s-.1215.3931-.1211.5985c-.0121.4248.1456.8373.4392 1.1485s.6994.4962 1.1301.5152c.2874-.0046.5681-.0861.8121-.2357.2441-.1496.4424-.3617.5737-.6136h1.596c-.1545.6623-.5348 1.2522-1.0775 1.6714-.5427.4191-1.2149.642-1.9043.6314z"/><path d="m26.6918 42.7599h-1.602l2.3037-5.9161h1.1845l2.3037 5.9161h-1.6197l-.2961-.8581h-1.9839zm1.2999-3.9781-.5922 1.8971h1.1844z"/><path d="m31.0117 42.7599v-5.9161h1.9928c.6337 0 1.1134.0408 1.519.3239.2666.1853.481.4345.623.724.1419.2895.2067.6099.1883.9309 0 .9573-.5063 1.6724-1.3591 1.9059l1.4805 2.0431h-1.8151l-1.1489-1.9059v1.9059zm1.7559-3.1872c.7255 0 1.0808-.1839 1.0808-.7151s-.2961-.6917-.9623-.6917h-.4057v1.4068z"/><path d="m36.1133 42.7599v-5.9161h3.2571v1.3075h-1.7766v.9544h1.7766v1.3164h-1.7766v1.0303h1.7766v1.3075z"/><path d="m38.3077 20.5932c-.1638-.0916-.3436-.152-.53-.1781h-.1332c-.0247-.0014-.0494-.0014-.0741 0h-.0681c-.0592 0-.1184 0-.1806 0h-11.7346c-.399 0-.7816.1562-1.0637.4343s-.4406.6552-.4406 1.0484c0 .3933.1585.7704.4406 1.0484.2821.2781.6647.4343 1.0637.4343h4.56c.072.0008.1408.0293.1917.0795.051.0502.0799.1181.0807.189-.001.0405-.0114.0802-.0304.1162-.019.0359-.0461.067-.0792.0911-2.5021 1.3163-5.7178 2.1131-9.2355 2.1131-.8379-.0009-1.6751-.0467-2.508-.1372v3.3623c.7107.0526 1.4302.0818 2.1616.0818 4.8975 0 9.351-1.1675 12.691-3.1084.0425-.0235.0905-.0356.1392-.0351.0785 0 .1538.0308.2094.0855.0555.0548.0867.129.0867.2064-.0003.0288-.0053.0574-.0148.0847l-.6958 1.8621c-.1116.237-.172.4942-.1775.7555-.0054.2612.0441.5207.1456.762.1015.2414.2527.4594.4441.6402.1913.1808.4186.3205.6676.4102.2489.0898.514.1277.7786.1112.2645-.0164.5227-.0867.7582-.2066.2356-.1198.4433-.2865.6101-.4895.1669-.2031.2891-.438.3591-.69l2.5169-6.7335c.1627-.4352.1569-.9143-.0163-1.3456s-.5016-.7846-.9224-.9922z"/><path d="m21.0743 7.87283c3.5532 0 6.7926.80556 9.3007 2.13937 0 0 1.593 1.1296 2.351.0467.8706-1.24625-.8676-2.01971-.8676-2.01971-3.1239-1.44183-6.9732-2.297-11.1187-2.297-.7314 0-1.4509.02918-2.1616.08172v2.18902c.8288-.09249 1.6621-.13926 2.4962-.1401z"/><path d="m3.05166.125c-.70678 0-1.38462.276753-1.8844.769377-.499773.492623-.780541 1.160763-.780541 1.857443v28.50968c.003912.6942.286405 1.3586.785761 1.8481.49935.4894 1.17495.7642 1.87918.7642h15.51294v-4.6991c-9.33322-.6713-16.58188-5.6389-16.58188-11.6748 0-6.0358 7.25162-11.00341 16.58188-11.67471v-5.70019z"/><path d="m6.67969 16.9127c0 4.4539 5.13151 8.1519 11.88561 8.8991v-17.80399c-6.7541.75302-11.88561 4.45099-11.88561 8.90489z"/></g></svg>