<svg fill="none" height="47" viewBox="0 0 60 47" width="60" xmlns="http://www.w3.org/2000/svg" xmlns:xlink="http://www.w3.org/1999/xlink"><clipPath id="a"><path d="m0 .625h60v45.75h-60z"/></clipPath><g clip-path="url(#a)" fill="#fff"><path d="m.375.625h4.64912c2.0799 0 2.81396.059188 3.42573.295636 1.16232.532234 1.83515 1.596704 1.83515 2.838594 0 1.1827-.36702 1.77412-1.59041 2.36555 1.28461.41401 2.14101 1.59671 2.01871 2.89778 0 1.95154-1.59045 3.25264-3.91509 3.25264h-6.42321v-1.8924h.91758v-7.8653h-.91758zm3.42573 1.8925v2.83859h2.38571c.85635.05919 1.65164-.53223 1.71286-1.36011v-.11822c0-.76884-.79528-1.36011-1.89638-1.36011h-2.20219zm0 4.6719v3.1934h2.56922c.97881.0592 1.83516-.5914 1.89639-1.5375v-.05919c0-1.00528-.85636-1.6559-2.14113-1.6559zm17.06717 2.18798c-.4283 1.95152-2.0799 3.13442-4.2821 3.13442-2.5693 0-4.4656-1.9516-4.4656-4.67194 0-2.72037 1.8963-4.6719 4.4656-4.6719 1.4069 0 2.7527.65046 3.548 1.83331.6118 1.00528.9788 2.12894.9176 3.31179h-6.6066c.2447 2.30634 1.7739 2.42474 2.2022 2.42474.8563.0592 1.6516-.5322 1.8964-1.30108zm-2.3247-2.60199c0-1.00529-.8563-1.77412-1.8351-1.77412h-.0613c-1.0398 0-1.8963.76883-2.0799 1.71493zm-12.35676 16.71961h4.22086v5.7955h-1.34583v-1.8333c-.24475.414-.55055.7688-.91758 1.1237-.79529.6504-1.77394 1.0053-2.75274 1.0053-2.81396 0-5.01615-2.6612-5.01615-6.0912 0-3.4301 2.20219-6.1504 4.95493-6.1504 1.52935-.0592 2.87518.7688 3.60924 2.0107v-1.8333h1.28463v3.7256h-1.34585c-.12229-.5322-.36703-1.0053-.67284-1.4193-.61177-.7688-1.59042-1.2419-2.56922-1.301-1.46813 0-3.67031 1.2418-3.67031 4.8493 0 2.8386 1.59041 4.9085 3.67031 4.9085 1.65164-.0592 2.99748-1.2419 3.30328-2.7796.06123-.2956.06123-.6504.06123-.9462h-2.87519zm14.49786 5.8546h-2.6304v-1.5968c-.6118 1.1237-1.8352 1.7742-3.1198 1.7742-1.5293.1182-2.8752-1.0645-2.9974-2.543v-.1774c0-1.7149 1.5293-2.543 5.1996-2.8978l.8564-.0592v-.887c0-1.0053-.7953-1.6559-2.0799-1.6559s-1.9575.414-2.2022 1.5967h-1.4069c.1223-.7097.4893-1.3601 1.0399-1.8333.6728-.5323 1.5904-.7689 2.4469-.7689 1.8964 0 3.4868.8279 3.4868 3.0752v4.9085h1.2846zm-2.6304-4.6128-.8564.1183c-2.8139.3548-3.7315.8278-3.7315 1.9515.0612 1.0053.9176 1.7149 1.8964 1.7149 1.3458-.0592 2.5081-1.0053 2.6917-2.3063zm6.4843-2.6613c.4282-.5914 1.2234-1.8333 2.9362-1.8333 1.2234 0 1.8964.5914 2.141 1.8333.2447-.414.4893-.7688.8563-1.1237.5506-.473 1.2234-.7688 1.9575-.7688 1.4069 0 2.2022.8871 2.2022 2.4247v5.6182h1.2846v1.0645h-2.5692v-6.2096c0-1.2419-.4283-1.8333-1.3459-1.8333-1.5904 0-2.4469 1.8333-2.4469 2.4837v4.4945h1.3458v1.0645h-2.6916v-6.387c0-1.1236-.4283-1.5967-1.3459-1.5967-1.4069 0-2.4469 1.7149-2.4469 2.543v4.4353h1.3458v1.0644h-3.9762v-1.0644h1.3458v-6.8598h-1.3458v-1.0644h2.6916zm12.7852-4.9675h2.5692v5.1449c.367-.6504 1.4069-1.9515 2.9975-1.9515 2.0799 0 3.6703 2.0697 3.6703 4.6719 0 2.4247-1.7129 4.4945-3.6703 4.4945-1.6517 0-2.447-1.0645-2.9975-1.7741v1.6559h-2.6305v-1.0645h1.2846v-10.1127h-1.2233zm2.5692 8.4567c0 1.4785 1.1623 2.6612 2.6304 2.7796 1.5904 0 2.5693-1.3601 2.5693-3.5483 0-2.1881-1.0399-3.4892-2.5693-3.4892-1.3458 0-2.6916 1.4193-2.6916 2.7204zm7.4526-8.4567h2.6305v11.1771h1.2234v1.0645h-3.9151v-1.0645h1.3458v-10.1717h-1.2846zm12.8463 9.7578c-.1223.5322-.367.9462-.7341 1.3601-.734.8279-1.7739 1.3011-2.9362 1.3011-2.5082 0-4.2821-1.8924-4.2821-4.6128 0-2.6021 1.7739-4.6127 4.0373-4.6127s4.0986 1.715 4.0986 4.8493h-6.6678c.1223 1.3011.4283 2.0698 1.0399 2.6612.4893.414 1.1011.6505 1.7128.6505 1.0399 0 1.7129-.4731 2.2022-1.5375zm-1.3459-2.7204c0-.8279-.3058-1.5967-.9175-2.2473-.4283-.3548-.9788-.5914-1.5294-.5322-1.1623.0591-2.1411.8278-2.4469 1.8923-.0612.2956-.1835.5914-.1835.8871z"/><path d="m4.59586 34.4922h2.93625l3.36449 9.8168h.9176v1.8924h-2.75274l-.79528-2.543h-4.28193l-.79529 2.543h-2.81396v-1.8924h.91758zm1.46829 2.1881-1.59042 5.2042h3.18099zm5.62775.5913h3.6703v1.7151h-.9176l1.2847 5.2633 1.5293-6.9783h2.3857l1.5294 6.8601 1.2233-5.145h-.9175v-1.7149h3.6703v1.7148h-.7953l-1.9576 7.1557h-2.4469l-1.5294-6.1504-1.4681 6.1504h-2.4466l-2.0187-7.1557h-.7953zm22.1445 7.2149h.7953v1.7149h-2.8752v-1.0645c-.6728.8279-1.7129 1.2419-2.814 1.2419-1.8351 0-3.2422-1.1827-3.2422-2.7796 0-2.6021 3.0587-2.8977 5.995-3.1343 0-1.3601-.4893-1.7742-1.6517-1.7742-1.1623 0-1.5904.5323-1.6516 1.3601v.0592l-2.2022-.0592c.1223-1.7741 1.5904-2.8977 3.7928-2.8977 2.5692 0 3.915 1.1236 3.915 3.1343zm-2.2022-2.4838c-2.1411.1774-3.548.3548-3.548 1.5967 0 .7096.6118 1.1827 1.5293 1.1827 1.1011 0 2.0187-.8279 2.0799-1.8924v-.887zm7.3348-3.3117c.6118-1.1236 1.2846-1.5967 2.3245-1.5967.367 0 .6728.0592 1.0398.1183v2.0697c-.367-.0592-.734-.1182-1.1011-.1182-1.1623-.0592-2.1409.7688-2.2021 1.8333v3.43h1.1011v1.7151h-4.2821v-1.7151h.9175v-5.4407h-.9175v-1.715h3.1197zm12.6017 4.5536c-.4283 1.9515-2.0799 3.1344-4.2821 3.1344-2.5692 0-4.4656-1.9516-4.4656-4.6719 0-2.7204 1.8964-4.672 4.4656-4.672 1.4069 0 2.7527.6505 3.548 1.8334.6118 1.0052.9788 2.1289.9176 3.3118h-6.6066c.2448 2.3063 1.774 2.4247 2.2022 2.4247.8564.0592 1.6516-.5322 1.8964-1.3011zm-2.3859-2.602c0-1.0053-.8564-1.7741-1.8352-1.7741h-.0612c-1.0398 0-1.8964.7688-2.0799 1.7149z"/></g></svg>