<svg fill="none" height="60" viewBox="0 0 60 60" width="60" xmlns="http://www.w3.org/2000/svg" xmlns:xlink="http://www.w3.org/1999/xlink"><clipPath id="a"><path d="m.183594.5h59v59h-59z"/></clipPath><g clip-path="url(#a)"><path d="m59.1831 29.9934c-.069-5.6903-1.7432-11.2422-4.8253-16.0017-3.0821-4.75959-7.4434-8.52863-12.5707-10.86325-5.1276-2.334613-10.8072-3.13756504-16.3704-2.314345-5.563.823255-10.7778 3.238385-15.0303 6.961065-4.25244 3.72263-7.36541 8.59773-8.97228 14.05113-1.60684 5.4535-1.640693 11.2581-.0975 16.7304 1.54319 5.4723 4.59911 10.384 8.80788 14.1573 4.2087 3.7733 9.3951 6.2506 14.9482 7.14v-21.1637h-7.3752v-8.6969h7.3752v-6.6066c-.1707-1.5362-.0063-3.0916.482-4.5564.4882-1.4648 1.288-2.8033 2.3431-3.921 1.055-1.1178 2.3394-1.9875 3.7628-2.5478s2.9512-.7976 4.4749-.695c2.2118.0306 4.4185.2303 6.6008.5972v7.4651h-3.6876c-.6357-.0811-1.2818-.0166-1.8895.1888-.6081.2054-1.1627.5464-1.6229.9979s-.8142 1.0019-1.0359 1.6104c-.222.6088-.3057 1.2601-.2456 1.9059v5.6362h8.1865l-1.3275 8.6969h-6.8221v20.9024c6.9692-1.1157 13.3126-4.7228 17.8794-10.1672 4.5667-5.4443 7.0544-12.3649 7.012-19.5068z" fill="#fff"/></g></svg>